Coordinates
version=1
nRows=22
nColumns=24
inDegrees=yes

Units are S.I. units (second, meters, Newtons, ...)
Angles are in degrees.

endheader
time	pelvis_tilt	pelvis_list	pelvis_rotation	pelvis_tx	pelvis_ty	pelvis_tz	hip_flexion_r	hip_adduction_r	hip_rotation_r	knee_angle_r	ankle_angle_r	subtalar_angle_r	mtp_angle_r	hip_flexion_l	hip_adduction_l	hip_rotation_l	knee_angle_l	ankle_angle_l	subtalar_angle_l	mtp_angle_l	lumbar_extension	lumbar_bending	lumbar_rotation
     18.95500000	      2.19302765	     -6.45947233	   -263.86282276	      0.03929193	      0.19514253	     -1.83602548	     13.83190810	      4.08913310	     -6.85708152	    -12.45057330	      1.12144249	     -5.42570977	      7.36470284	     23.46058723	     -3.87618372	      1.73321914	    -63.06357499	    -10.65301679	     -5.11070112	      8.75885877	     -9.11728941	      0.42006725	      1.86770223
     18.96000000	      2.11974392	     -6.45815372	   -263.93705272	      0.03964855	      0.19578685	     -1.83535986	     13.33477649	      4.04429267	     -7.24157675	    -12.15053416	      1.31985540	     -4.76306740	      7.53415266	     24.02800540	     -3.73256554	      1.67713546	    -62.84176087	    -10.21501680	     -5.43910088	      8.54243600	     -9.15887035	      0.31674172	      2.01695237
     18.96500000	      2.05811511	     -6.43449664	   -264.10816815	      0.04026553	      0.19634218	     -1.83501299	     12.73156441	      4.09880706	     -7.13661819	    -11.74129071	      1.49507419	     -4.51535717	      7.62934089	     24.47185097	     -3.70660166	      1.52110435	    -62.46312914	     -9.78711355	     -5.40874076	      8.47907396	     -9.17805275	      0.18427738	      2.31357854
     18.97000000	      1.97323681	     -6.45921514	   -264.23193772	      0.04076287	      0.19683610	     -1.83455931	     12.23882195	      4.10985380	     -7.02930648	    -11.40878693	      1.63372827	     -4.48497253	      7.68435372	     25.00196415	     -3.59866092	      1.38271057	    -62.08404794	     -9.43676918	     -5.63167782	      8.45322748	     -9.15842977	      0.04992167	      2.50882319
     18.97500000	      1.91212992	     -6.45096965	   -264.36313900	      0.04125469	      0.19729418	     -1.83404668	     11.71798880	      4.13819037	     -7.01919667	    -11.08646754	      1.77409320	     -4.32607620	      7.74464199	     25.47366588	     -3.54455432	      1.25126430	    -61.62478172	     -8.97336175	     -5.66155740	      8.45237245	     -9.18332492	     -0.06661578	      2.74324263
     18.98000000	      1.86068409	     -6.44470196	   -264.47357368	      0.04166414	      0.19767582	     -1.83354106	     11.15026736	      4.17142605	     -7.00381407	    -10.67480275	      1.93470185	     -4.04911434	      7.85198025	     25.89502533	     -3.50055086	      1.17934084	    -61.03335669	     -8.48651359	     -5.25700944	      8.49503860	     -9.20216507	     -0.15802629	      2.93241923
     18.98500000	      1.79605392	     -6.42858776	   -264.60561617	      0.04214293	      0.19800144	     -1.83291595	     10.60654041	      4.19792088	     -6.93229447	    -10.31381021	      2.08402513	     -3.87129441	      7.93538388	     26.32187813	     -3.44810191	      1.04672769	    -60.44170724	     -8.01064833	     -4.99796802	      8.55075089	     -9.24866007	     -0.26925432	      3.14433789
     18.99000000	      1.74281817	     -6.43699163	   -264.72734844	      0.04252353	      0.19824571	     -1.83243475	     10.10423281	      4.22580490	     -6.81682338	    -10.00254020	      2.27578499	     -3.80511247	      7.99117513	     26.75482203	     -3.40216277	      0.89538839	    -59.79878151	     -7.58846200	     -4.95459432	      8.52714905	     -9.24692980	     -0.36742132	      3.35852407
     18.99500000	      1.69371715	     -6.44709543	   -264.83394015	      0.04283731	      0.19847815	     -1.83197449	      9.56539415	      4.25340191	     -6.73571902	     -9.61136025	      2.45453953	     -3.52276765	      8.00234315	     27.13726717	     -3.32046694	      0.82980364	    -59.05621744	     -7.07177728	     -4.66912217	      8.50662313	     -9.24092832	     -0.45430002	      3.55119221
     19.00000000	      1.63853094	     -6.47998124	   -264.95446156	      0.04326313	      0.19863186	     -1.83150348	      9.08742490	      4.25655770	     -6.85690685	     -9.30000090	      2.66386466	     -3.16215076	      8.03786620	     27.55169010	     -3.27481529	      0.72112434	    -58.26999270	     -6.71448927	     -4.13486160	      8.32793354	     -9.21539791	     -0.54583841	      3.71068529
     19.00500000	      1.59892143	     -6.48653493	   -265.07017455	      0.04360305	      0.19873832	     -1.83101842	      8.55078920	      4.29036624	     -6.79020226	     -8.93983890	      2.90211032	     -2.98667097	      8.06629746	     27.89607079	     -3.23855662	      0.61075726	    -57.39922917	     -6.52520750	     -3.93389900	      8.30174804	     -9.21096752	     -0.62498475	      3.93138923
     19.01000000	      1.55261807	     -6.50448655	   -265.17413415	      0.04394972	      0.19878161	     -1.83061890	      8.05763964	      4.30112536	     -6.97498307	     -8.59544960	      3.05006750	     -2.59557118	      8.17916252	     28.21794410	     -3.16453751	      0.55857587	    -56.47181830	     -6.22003166	     -3.63193787	      8.32268141	     -9.18690899	     -0.70780066	      4.07159696
     19.01500000	      1.51825502	     -6.56478185	   -265.31593351	      0.04431214	      0.19870695	     -1.83001849	      7.55766543	      4.37561608	     -6.40217750	     -8.22598181	      3.17687318	     -3.09291767	      8.07010247	     28.60827857	     -3.13683521	      0.40703943	    -55.47091718	     -6.32871338	     -3.59916491	      9.25050451	     -9.15003616	     -0.77521006	      4.25026918
     19.02000000	      1.47603127	     -6.58411675	   -265.41577894	      0.04457729	      0.19867218	     -1.82948269	      7.08325001	      4.38427881	     -6.41692219	     -7.94452086	      3.51663763	     -2.76677415	      7.97850583	     28.88075030	     -3.03420000	      0.42326266	    -54.41349176	     -5.87777086	     -3.02235221	      9.45732844	     -9.14304649	     -0.85189512	      4.43552447
     19.02500000	      1.45029493	     -6.63436508	   -265.53335978	      0.04481310	      0.19856465	     -1.82892864	      6.64418254	      4.41034324	     -6.33512351	     -7.65273468	      3.72264811	     -2.56406794	      7.84402778	     29.18762032	     -2.96378740	      0.39507846	    -53.30188880	     -5.70156290	     -2.66181990	      9.74362576	     -9.10927178	     -0.89489470	      4.59012889
     19.03000000	      1.44629556	     -6.69965530	   -265.65467147	      0.04511333	      0.19833864	     -1.82840202	      6.23349966	      4.47062092	     -6.22616566	     -7.38927267	      4.01298953	     -2.48399101	      7.46180650	     29.53650031	     -3.02034313	      0.20753091	    -52.13040852	     -5.73607135	     -2.16836940	     11.29742550	     -9.04440093	     -0.95092212	      4.84288042
     19.03500000	      1.36034790	     -6.70212074	   -265.75100473	      0.04524275	      0.19823558	     -1.82787448	      5.71499371	      4.42927786	     -6.12291896	     -7.06305638	      4.18787939	     -2.30866685	      7.44409258	     29.68099424	     -2.80079582	      0.31230891	    -50.85241355	     -5.34031219	     -1.94036039	     11.35921871	     -9.06972365	     -1.04121729	      4.93169016
     19.04000000	      1.36434414	     -6.75213201	   -265.83284787	      0.04540908	      0.19797286	     -1.82739887	      5.26121006	      4.47492570	     -6.11948086	     -6.75078738	      4.41541930	     -2.04629763	      7.28587209	     29.91354325	     -2.74094388	      0.35716357	    -49.57175848	     -5.00652364	     -1.29295961	     11.47422643	     -9.02365106	     -1.05183903	      5.05437289
     19.04500000	      1.29965373	     -6.80087953	   -265.92336496	      0.04556670	      0.19770698	     -1.82692497	      4.83862996	      4.44598280	     -6.09896121	     -6.51348854	      4.39428345	     -2.06460879	      7.31740938	     30.09524369	     -2.61114094	      0.37403459	    -48.15677208	     -4.92570327	     -0.98838298	     11.52501316	     -8.99064037	     -1.13946030	      5.20262628
     19.05000000	      1.32313184	     -6.84728869	   -265.98480208	      0.04566426	      0.19736150	     -1.82642839	      4.37355504	      4.51983139	     -6.01320762	     -6.17149984	      4.48613409	     -2.05181372	      7.39690575	     30.27917137	     -2.58196596	      0.43361400	    -46.75976554	     -4.61726740	     -0.32087321	     11.65557517	     -8.95229561	     -1.12903261	      5.30346803
     19.05500000	      1.31639628	     -6.88790149	   -266.04567247	      0.04567455	      0.19700069	     -1.82595556	      3.94407770	      4.52834382	     -6.12599243	     -5.91978136	      4.77534389	     -1.69329572	      7.52592108	     30.41901444	     -2.50194071	      0.50107914	    -45.26077233	     -4.45506953	      0.15263255	     11.82954158	     -8.91961153	     -1.13955270	      5.41307471
     19.06000000	      1.33098968	     -6.93079991	   -266.11522091	      0.04571941	      0.19660197	     -1.82547661	      3.51016034	      4.57073429	     -6.15887617	     -5.65307809	      5.04391402	     -1.29353296	      7.54746386	     30.53921237	     -2.47219039	      0.52492148	    -43.73807125	     -4.24007187	      0.76873390	     11.98268128	     -8.88817948	     -1.13298956	      5.53153560
